<svg xmlns="http://www.w3.org/2000/svg" viewBox="0 0 512 512">
  <defs>
    <linearGradient id="g" x1="0" y1="0" x2="1" y2="1">
      <stop stop-color="#6ee7ff"/>
      <stop offset="1" stop-color="#a78bfa"/>
    </linearGradient>
  </defs>
  <rect width="512" height="512" rx="128" fill="#080b14"/>
  <circle cx="168" cy="132" r="130" fill="#38bdf8" opacity=".24"/>
  <circle cx="380" cy="160" r="140" fill="#a78bfa" opacity=".22"/>
  <rect x="76" y="250" width="360" height="132" rx="28" fill="url(#g)"/>
  <rect x="110" y="250" width="42" height="132" rx="12" fill="#f8fafc"/>
  <rect x="174" y="250" width="42" height="132" rx="12" fill="#f8fafc"/>
  <rect x="238" y="250" width="42" height="132" rx="12" fill="#f8fafc"/>
  <rect x="302" y="250" width="42" height="132" rx="12" fill="#f8fafc"/>
  <rect x="366" y="250" width="42" height="132" rx="12" fill="#f8fafc"/>
  <rect x="146" y="250" width="36" height="82" rx="10" fill="#020617"/>
  <rect x="210" y="250" width="36" height="82" rx="10" fill="#020617"/>
  <rect x="338" y="250" width="36" height="82" rx="10" fill="#020617"/>
  <path d="M268 104v72.5a47 47 0 1 1-30-43.8V104h30Z" fill="#f8fafc"/>
</svg>
